<svg xmlns="http://www.w3.org/2000/svg" xmlns:xlink="http://www.w3.org/1999/xlink" width="500" zoomAndPan="magnify" viewBox="0 0 375 374.999991" height="500" preserveAspectRatio="xMidYMid meet" version="1.0"><defs><g/><clipPath id="e4cf2a1237"><path d="M 179 174 L 196 174 L 196 210.582031 L 179 210.582031 Z M 179 174 " clip-rule="nonzero"/></clipPath><clipPath id="e9ed8cb42e"><path d="M 148.285156 118 L 181 118 L 181 201 L 148.285156 201 Z M 148.285156 118 " clip-rule="nonzero"/></clipPath><clipPath id="1e6aac7549"><path d="M 160 100.332031 L 227 100.332031 L 227 210.582031 L 160 210.582031 Z M 160 100.332031 " clip-rule="nonzero"/></clipPath></defs><g fill="#0f0147" fill-opacity="1"><g transform="translate(0.0000045, 267.187307)"><g><path d="M 35.671875 0 L 27.84375 0 L 11.8125 -21.46875 L 11.8125 0 L 3.484375 0 L 3.484375 -34.875 L 11.3125 -34.875 L 27.390625 -13.34375 L 27.390625 -34.875 L 35.671875 -34.875 Z M 35.671875 0 "/></g></g></g><g fill="#0f0147" fill-opacity="1"><g transform="translate(39.146487, 267.187307)"><g><path d="M 30.78125 -27.890625 L 12.359375 -27.890625 L 12.359375 -20.96875 L 28.984375 -20.96875 L 28.984375 -14 L 12.359375 -14 L 12.359375 -6.96875 L 31.328125 -6.96875 L 31.328125 0 L 3.484375 0 L 3.484375 -34.875 L 30.78125 -34.875 Z M 30.78125 -27.890625 "/></g></g></g><g fill="#0f0147" fill-opacity="1"><g transform="translate(72.714844, 267.187307)"><g><path d="M 23.703125 -18.234375 L 36.21875 0 L 25.609375 0 L 18.078125 -11.109375 L 10.5625 0 L 0.25 0 L 12.703125 -17.828125 L 1.046875 -34.875 L 11.359375 -34.875 L 18.078125 -24.703125 L 24.8125 -34.875 L 35.21875 -34.875 Z M 23.703125 -18.234375 "/></g></g></g><g fill="#0f0147" fill-opacity="1"><g transform="translate(109.271483, 267.187307)"><g><path d="M 34.875 -34.875 L 34.875 -14.640625 C 34.875 -10.023438 33.441406 -6.363281 30.578125 -3.65625 C 27.722656 -0.945312 23.859375 0.40625 18.984375 0.40625 C 14.066406 0.40625 10.15625 -0.945312 7.25 -3.65625 C 4.34375 -6.363281 2.890625 -10.023438 2.890625 -14.640625 L 2.890625 -34.875 L 11.75 -34.875 L 11.75 -14.640625 C 11.75 -12.316406 12.421875 -10.46875 13.765625 -9.09375 C 15.117188 -7.71875 16.875 -7.03125 19.03125 -7.03125 C 21.15625 -7.03125 22.851562 -7.707031 24.125 -9.0625 C 25.40625 -10.425781 26.046875 -12.285156 26.046875 -14.640625 L 26.046875 -34.875 Z M 34.875 -34.875 "/></g></g></g><g fill="#0f0147" fill-opacity="1"><g transform="translate(147.023434, 267.187307)"><g><path d="M 16.890625 -35.265625 C 22.097656 -35.265625 26.679688 -33.96875 30.640625 -31.375 L 27.296875 -24.453125 C 25.472656 -25.515625 23.515625 -26.382812 21.421875 -27.0625 C 19.328125 -27.75 17.566406 -28.09375 16.140625 -28.09375 C 13.578125 -28.09375 12.296875 -27.242188 12.296875 -25.546875 C 12.296875 -24.453125 12.925781 -23.570312 14.1875 -22.90625 C 15.457031 -22.25 16.992188 -21.675781 18.796875 -21.1875 C 20.609375 -20.707031 22.421875 -20.128906 24.234375 -19.453125 C 26.046875 -18.773438 27.582031 -17.671875 28.84375 -16.140625 C 30.101562 -14.609375 30.734375 -12.679688 30.734375 -10.359375 C 30.734375 -7.003906 29.421875 -4.390625 26.796875 -2.515625 C 24.171875 -0.640625 20.832031 0.296875 16.78125 0.296875 C 13.894531 0.296875 11.039062 -0.195312 8.21875 -1.1875 C 5.394531 -2.1875 2.9375 -3.550781 0.84375 -5.28125 L 4.28125 -12.109375 C 6.039062 -10.578125 8.113281 -9.320312 10.5 -8.34375 C 12.894531 -7.363281 15.023438 -6.875 16.890625 -6.875 C 18.316406 -6.875 19.425781 -7.128906 20.21875 -7.640625 C 21.019531 -8.160156 21.421875 -8.914062 21.421875 -9.90625 C 21.421875 -10.875 20.960938 -11.679688 20.046875 -12.328125 C 19.140625 -12.972656 18.003906 -13.453125 16.640625 -13.765625 C 15.273438 -14.085938 13.796875 -14.515625 12.203125 -15.046875 C 10.609375 -15.578125 9.128906 -16.15625 7.765625 -16.78125 C 6.410156 -17.414062 5.273438 -18.421875 4.359375 -19.796875 C 3.441406 -21.179688 2.984375 -22.832031 2.984375 -24.75 C 2.984375 -27.9375 4.253906 -30.484375 6.796875 -32.390625 C 9.335938 -34.304688 12.703125 -35.265625 16.890625 -35.265625 Z M 16.890625 -35.265625 "/></g></g></g><g fill="#0f0147" fill-opacity="1"><g transform="translate(179.09765, 267.187307)"><g/></g></g><g fill="#0f0147" fill-opacity="1"><g transform="translate(190.652337, 267.187307)"><g><path d="M 20.03125 -35.171875 C 25.4375 -35.171875 29.929688 -33.484375 33.515625 -30.109375 C 37.109375 -26.742188 38.90625 -22.535156 38.90625 -17.484375 C 38.90625 -12.398438 37.101562 -8.144531 33.5 -4.71875 C 29.894531 -1.300781 25.398438 0.40625 20.015625 0.40625 C 14.640625 0.40625 10.160156 -1.296875 6.578125 -4.703125 C 2.992188 -8.109375 1.203125 -12.367188 1.203125 -17.484375 C 1.203125 -22.566406 2.992188 -26.785156 6.578125 -30.140625 C 10.160156 -33.492188 14.644531 -35.171875 20.03125 -35.171875 Z M 20.125 -27.75 C 17.40625 -27.75 15.082031 -26.757812 13.15625 -24.78125 C 11.226562 -22.800781 10.265625 -20.347656 10.265625 -17.421875 C 10.265625 -14.503906 11.234375 -12.039062 13.171875 -10.03125 C 15.117188 -8.03125 17.4375 -7.03125 20.125 -7.03125 C 22.8125 -7.03125 25.09375 -8.03125 26.96875 -10.03125 C 28.84375 -12.039062 29.78125 -14.503906 29.78125 -17.421875 C 29.78125 -20.347656 28.84375 -22.800781 26.96875 -24.78125 C 25.09375 -26.757812 22.8125 -27.75 20.125 -27.75 Z M 20.125 -27.75 "/></g></g></g><g fill="#0f0147" fill-opacity="1"><g transform="translate(230.745108, 267.187307)"><g><path d="M 29.34375 -27.890625 L 12.359375 -27.890625 L 12.359375 -19.828125 L 28 -19.828125 L 28 -12.859375 L 12.359375 -12.859375 L 12.359375 0 L 3.484375 0 L 3.484375 -34.875 L 29.34375 -34.875 Z M 29.34375 -27.890625 "/></g></g></g><g fill="#0f0147" fill-opacity="1"><g transform="translate(260.827137, 267.187307)"><g><path d="M 29.34375 -27.890625 L 12.359375 -27.890625 L 12.359375 -19.828125 L 28 -19.828125 L 28 -12.859375 L 12.359375 -12.859375 L 12.359375 0 L 3.484375 0 L 3.484375 -34.875 L 29.34375 -34.875 Z M 29.34375 -27.890625 "/></g></g></g><g fill="#0f0147" fill-opacity="1"><g transform="translate(290.909166, 267.187307)"><g><path d="M 12.359375 0 L 3.484375 0 L 3.484375 -34.875 L 12.359375 -34.875 Z M 12.359375 0 "/></g></g></g><g fill="#0f0147" fill-opacity="1"><g transform="translate(306.747056, 267.187307)"><g><path d="M 19.828125 -35.171875 C 22.410156 -35.171875 24.957031 -34.640625 27.46875 -33.578125 C 29.976562 -32.515625 32.113281 -31.085938 33.875 -29.296875 L 28.734375 -23.21875 C 27.609375 -24.613281 26.253906 -25.71875 24.671875 -26.53125 C 23.097656 -27.34375 21.53125 -27.75 19.96875 -27.75 C 17.21875 -27.75 14.910156 -26.773438 13.046875 -24.828125 C 11.191406 -22.890625 10.265625 -20.492188 10.265625 -17.640625 C 10.265625 -14.710938 11.191406 -12.269531 13.046875 -10.3125 C 14.910156 -8.351562 17.21875 -7.375 19.96875 -7.375 C 21.4375 -7.375 22.957031 -7.738281 24.53125 -8.46875 C 26.113281 -9.195312 27.515625 -10.191406 28.734375 -11.453125 L 33.921875 -5.984375 C 32.023438 -4.054688 29.789062 -2.507812 27.21875 -1.34375 C 24.644531 -0.175781 22.082031 0.40625 19.53125 0.40625 C 14.28125 0.40625 9.910156 -1.300781 6.421875 -4.71875 C 2.941406 -8.144531 1.203125 -12.414062 1.203125 -17.53125 C 1.203125 -22.550781 2.976562 -26.742188 6.53125 -30.109375 C 10.082031 -33.484375 14.515625 -35.171875 19.828125 -35.171875 Z M 19.828125 -35.171875 "/></g></g></g><g fill="#0f0147" fill-opacity="1"><g transform="translate(341.211898, 267.187307)"><g><path d="M 30.78125 -27.890625 L 12.359375 -27.890625 L 12.359375 -20.96875 L 28.984375 -20.96875 L 28.984375 -14 L 12.359375 -14 L 12.359375 -6.96875 L 31.328125 -6.96875 L 31.328125 0 L 3.484375 0 L 3.484375 -34.875 L 30.78125 -34.875 Z M 30.78125 -27.890625 "/></g></g></g><g fill="#0f0147" fill-opacity="1"><g transform="translate(203.198062, 287.896123)"><g><path d="M 4.078125 0.125 C 3.367188 0.125 2.679688 0.0234375 2.015625 -0.171875 C 1.359375 -0.367188 0.835938 -0.632812 0.453125 -0.96875 L 1.046875 -2.296875 C 1.421875 -1.992188 1.878906 -1.75 2.421875 -1.5625 C 2.972656 -1.375 3.523438 -1.28125 4.078125 -1.28125 C 4.753906 -1.28125 5.257812 -1.390625 5.59375 -1.609375 C 5.9375 -1.828125 6.109375 -2.113281 6.109375 -2.46875 C 6.109375 -2.738281 6.007812 -2.957031 5.8125 -3.125 C 5.625 -3.289062 5.382812 -3.421875 5.09375 -3.515625 C 4.8125 -3.617188 4.421875 -3.726562 3.921875 -3.84375 C 3.222656 -4.007812 2.65625 -4.175781 2.21875 -4.34375 C 1.789062 -4.507812 1.421875 -4.769531 1.109375 -5.125 C 0.804688 -5.476562 0.65625 -5.957031 0.65625 -6.5625 C 0.65625 -7.0625 0.789062 -7.519531 1.0625 -7.9375 C 1.34375 -8.351562 1.757812 -8.679688 2.3125 -8.921875 C 2.863281 -9.171875 3.539062 -9.296875 4.34375 -9.296875 C 4.90625 -9.296875 5.457031 -9.222656 6 -9.078125 C 6.539062 -8.941406 7.003906 -8.742188 7.390625 -8.484375 L 6.859375 -7.15625 C 6.460938 -7.394531 6.046875 -7.570312 5.609375 -7.6875 C 5.171875 -7.8125 4.742188 -7.875 4.328125 -7.875 C 3.660156 -7.875 3.160156 -7.757812 2.828125 -7.53125 C 2.503906 -7.3125 2.34375 -7.015625 2.34375 -6.640625 C 2.34375 -6.378906 2.4375 -6.164062 2.625 -6 C 2.8125 -5.832031 3.046875 -5.695312 3.328125 -5.59375 C 3.617188 -5.5 4.015625 -5.394531 4.515625 -5.28125 C 5.191406 -5.125 5.75 -4.957031 6.1875 -4.78125 C 6.625 -4.613281 7 -4.351562 7.3125 -4 C 7.625 -3.65625 7.78125 -3.1875 7.78125 -2.59375 C 7.78125 -2.082031 7.640625 -1.625 7.359375 -1.21875 C 7.085938 -0.8125 6.671875 -0.484375 6.109375 -0.234375 C 5.554688 0.00390625 4.878906 0.125 4.078125 0.125 Z M 4.078125 0.125 "/></g></g></g><g fill="#0f0147" fill-opacity="1"><g transform="translate(213.13904, 287.896123)"><g><path d="M 1.234375 -9.171875 L 2.9375 -9.171875 L 2.9375 0 L 1.234375 0 Z M 1.234375 -9.171875 "/></g></g></g><g fill="#0f0147" fill-opacity="1"><g transform="translate(219.025812, 287.896123)"><g><path d="M 4.078125 0.125 C 3.367188 0.125 2.679688 0.0234375 2.015625 -0.171875 C 1.359375 -0.367188 0.835938 -0.632812 0.453125 -0.96875 L 1.046875 -2.296875 C 1.421875 -1.992188 1.878906 -1.75 2.421875 -1.5625 C 2.972656 -1.375 3.523438 -1.28125 4.078125 -1.28125 C 4.753906 -1.28125 5.257812 -1.390625 5.59375 -1.609375 C 5.9375 -1.828125 6.109375 -2.113281 6.109375 -2.46875 C 6.109375 -2.738281 6.007812 -2.957031 5.8125 -3.125 C 5.625 -3.289062 5.382812 -3.421875 5.09375 -3.515625 C 4.8125 -3.617188 4.421875 -3.726562 3.921875 -3.84375 C 3.222656 -4.007812 2.65625 -4.175781 2.21875 -4.34375 C 1.789062 -4.507812 1.421875 -4.769531 1.109375 -5.125 C 0.804688 -5.476562 0.65625 -5.957031 0.65625 -6.5625 C 0.65625 -7.0625 0.789062 -7.519531 1.0625 -7.9375 C 1.34375 -8.351562 1.757812 -8.679688 2.3125 -8.921875 C 2.863281 -9.171875 3.539062 -9.296875 4.34375 -9.296875 C 4.90625 -9.296875 5.457031 -9.222656 6 -9.078125 C 6.539062 -8.941406 7.003906 -8.742188 7.390625 -8.484375 L 6.859375 -7.15625 C 6.460938 -7.394531 6.046875 -7.570312 5.609375 -7.6875 C 5.171875 -7.8125 4.742188 -7.875 4.328125 -7.875 C 3.660156 -7.875 3.160156 -7.757812 2.828125 -7.53125 C 2.503906 -7.3125 2.34375 -7.015625 2.34375 -6.640625 C 2.34375 -6.378906 2.4375 -6.164062 2.625 -6 C 2.8125 -5.832031 3.046875 -5.695312 3.328125 -5.59375 C 3.617188 -5.5 4.015625 -5.394531 4.515625 -5.28125 C 5.191406 -5.125 5.75 -4.957031 6.1875 -4.78125 C 6.625 -4.613281 7 -4.351562 7.3125 -4 C 7.625 -3.65625 7.78125 -3.1875 7.78125 -2.59375 C 7.78125 -2.082031 7.640625 -1.625 7.359375 -1.21875 C 7.085938 -0.8125 6.671875 -0.484375 6.109375 -0.234375 C 5.554688 0.00390625 4.878906 0.125 4.078125 0.125 Z M 4.078125 0.125 "/></g></g></g><g fill="#0f0147" fill-opacity="1"><g transform="translate(228.966791, 287.896123)"><g><path d="M 3.09375 -7.71875 L 0.046875 -7.71875 L 0.046875 -9.171875 L 7.828125 -9.171875 L 7.828125 -7.71875 L 4.796875 -7.71875 L 4.796875 0 L 3.09375 0 Z M 3.09375 -7.71875 "/></g></g></g><g fill="#0f0147" fill-opacity="1"><g transform="translate(238.554661, 287.896123)"><g><path d="M 8.109375 -1.421875 L 8.109375 0 L 1.234375 0 L 1.234375 -9.171875 L 7.921875 -9.171875 L 7.921875 -7.734375 L 2.9375 -7.734375 L 2.9375 -5.359375 L 7.359375 -5.359375 L 7.359375 -3.953125 L 2.9375 -3.953125 L 2.9375 -1.421875 Z M 8.109375 -1.421875 "/></g></g></g><g fill="#0f0147" fill-opacity="1"><g transform="translate(249.031841, 287.896123)"><g><path d="M 9.65625 0 L 9.640625 -6.078125 L 6.625 -1.046875 L 5.859375 -1.046875 L 2.859375 -6 L 2.859375 0 L 1.234375 0 L 1.234375 -9.171875 L 2.625 -9.171875 L 6.265625 -3.09375 L 9.84375 -9.171875 L 11.25 -9.171875 L 11.265625 0 Z M 9.65625 0 "/></g></g></g><g fill="#0f0147" fill-opacity="1"><g transform="translate(263.236282, 287.896123)"><g><path d="M 7.171875 -2.125 L 2.59375 -2.125 L 1.6875 0 L -0.0625 0 L 4.0625 -9.171875 L 5.734375 -9.171875 L 9.875 0 L 8.09375 0 Z M 6.609375 -3.453125 L 4.890625 -7.46875 L 3.171875 -3.453125 Z M 6.609375 -3.453125 "/></g></g></g><g fill="#0f0147" fill-opacity="1"><g transform="translate(274.746634, 287.896123)"><g/></g></g><g fill="#0f0147" fill-opacity="1"><g transform="translate(280.071055, 287.896123)"><g><path d="M 1.234375 -9.171875 L 5.234375 -9.171875 C 6.210938 -9.171875 7.082031 -8.976562 7.84375 -8.59375 C 8.601562 -8.21875 9.191406 -7.679688 9.609375 -6.984375 C 10.023438 -6.285156 10.234375 -5.484375 10.234375 -4.578125 C 10.234375 -3.671875 10.023438 -2.867188 9.609375 -2.171875 C 9.191406 -1.484375 8.601562 -0.945312 7.84375 -0.5625 C 7.082031 -0.1875 6.210938 0 5.234375 0 L 1.234375 0 Z M 5.15625 -1.4375 C 5.832031 -1.4375 6.425781 -1.566406 6.9375 -1.828125 C 7.445312 -2.085938 7.835938 -2.453125 8.109375 -2.921875 C 8.390625 -3.398438 8.53125 -3.953125 8.53125 -4.578125 C 8.53125 -5.210938 8.390625 -5.765625 8.109375 -6.234375 C 7.835938 -6.710938 7.445312 -7.078125 6.9375 -7.328125 C 6.425781 -7.585938 5.832031 -7.71875 5.15625 -7.71875 L 2.9375 -7.71875 L 2.9375 -1.4375 Z M 5.15625 -1.4375 "/></g></g></g><g fill="#0f0147" fill-opacity="1"><g transform="translate(292.588418, 287.896123)"><g><path d="M 8.109375 -1.421875 L 8.109375 0 L 1.234375 0 L 1.234375 -9.171875 L 7.921875 -9.171875 L 7.921875 -7.734375 L 2.9375 -7.734375 L 2.9375 -5.359375 L 7.359375 -5.359375 L 7.359375 -3.953125 L 2.9375 -3.953125 L 2.9375 -1.421875 Z M 8.109375 -1.421875 "/></g></g></g><g fill="#0f0147" fill-opacity="1"><g transform="translate(303.065598, 287.896123)"><g/></g></g><g fill="#0f0147" fill-opacity="1"><g transform="translate(308.390019, 287.896123)"><g><path d="M 7.484375 -4.6875 L 9.09375 -4.6875 L 9.09375 -1.03125 C 8.625 -0.65625 8.070312 -0.367188 7.4375 -0.171875 C 6.8125 0.0234375 6.171875 0.125 5.515625 0.125 C 4.578125 0.125 3.734375 -0.078125 2.984375 -0.484375 C 2.234375 -0.890625 1.644531 -1.445312 1.21875 -2.15625 C 0.789062 -2.875 0.578125 -3.679688 0.578125 -4.578125 C 0.578125 -5.484375 0.789062 -6.289062 1.21875 -7 C 1.644531 -7.71875 2.234375 -8.28125 2.984375 -8.6875 C 3.742188 -9.09375 4.59375 -9.296875 5.53125 -9.296875 C 6.300781 -9.296875 7 -9.164062 7.625 -8.90625 C 8.257812 -8.65625 8.789062 -8.285156 9.21875 -7.796875 L 8.140625 -6.75 C 7.441406 -7.445312 6.601562 -7.796875 5.625 -7.796875 C 4.96875 -7.796875 4.390625 -7.660156 3.890625 -7.390625 C 3.390625 -7.117188 3 -6.738281 2.71875 -6.25 C 2.4375 -5.769531 2.296875 -5.210938 2.296875 -4.578125 C 2.296875 -3.972656 2.4375 -3.425781 2.71875 -2.9375 C 3 -2.445312 3.390625 -2.0625 3.890625 -1.78125 C 4.390625 -1.5 4.960938 -1.359375 5.609375 -1.359375 C 6.316406 -1.359375 6.941406 -1.515625 7.484375 -1.828125 Z M 7.484375 -4.6875 "/></g></g></g><g fill="#0f0147" fill-opacity="1"><g transform="translate(320.201167, 287.896123)"><g><path d="M 8.109375 -1.421875 L 8.109375 0 L 1.234375 0 L 1.234375 -9.171875 L 7.921875 -9.171875 L 7.921875 -7.734375 L 2.9375 -7.734375 L 2.9375 -5.359375 L 7.359375 -5.359375 L 7.359375 -3.953125 L 2.9375 -3.953125 L 2.9375 -1.421875 Z M 8.109375 -1.421875 "/></g></g></g><g fill="#0f0147" fill-opacity="1"><g transform="translate(330.678347, 287.896123)"><g><path d="M 4.078125 0.125 C 3.367188 0.125 2.679688 0.0234375 2.015625 -0.171875 C 1.359375 -0.367188 0.835938 -0.632812 0.453125 -0.96875 L 1.046875 -2.296875 C 1.421875 -1.992188 1.878906 -1.75 2.421875 -1.5625 C 2.972656 -1.375 3.523438 -1.28125 4.078125 -1.28125 C 4.753906 -1.28125 5.257812 -1.390625 5.59375 -1.609375 C 5.9375 -1.828125 6.109375 -2.113281 6.109375 -2.46875 C 6.109375 -2.738281 6.007812 -2.957031 5.8125 -3.125 C 5.625 -3.289062 5.382812 -3.421875 5.09375 -3.515625 C 4.8125 -3.617188 4.421875 -3.726562 3.921875 -3.84375 C 3.222656 -4.007812 2.65625 -4.175781 2.21875 -4.34375 C 1.789062 -4.507812 1.421875 -4.769531 1.109375 -5.125 C 0.804688 -5.476562 0.65625 -5.957031 0.65625 -6.5625 C 0.65625 -7.0625 0.789062 -7.519531 1.0625 -7.9375 C 1.34375 -8.351562 1.757812 -8.679688 2.3125 -8.921875 C 2.863281 -9.171875 3.539062 -9.296875 4.34375 -9.296875 C 4.90625 -9.296875 5.457031 -9.222656 6 -9.078125 C 6.539062 -8.941406 7.003906 -8.742188 7.390625 -8.484375 L 6.859375 -7.15625 C 6.460938 -7.394531 6.046875 -7.570312 5.609375 -7.6875 C 5.171875 -7.8125 4.742188 -7.875 4.328125 -7.875 C 3.660156 -7.875 3.160156 -7.757812 2.828125 -7.53125 C 2.503906 -7.3125 2.34375 -7.015625 2.34375 -6.640625 C 2.34375 -6.378906 2.4375 -6.164062 2.625 -6 C 2.8125 -5.832031 3.046875 -5.695312 3.328125 -5.59375 C 3.617188 -5.5 4.015625 -5.394531 4.515625 -5.28125 C 5.191406 -5.125 5.75 -4.957031 6.1875 -4.78125 C 6.625 -4.613281 7 -4.351562 7.3125 -4 C 7.625 -3.65625 7.78125 -3.1875 7.78125 -2.59375 C 7.78125 -2.082031 7.640625 -1.625 7.359375 -1.21875 C 7.085938 -0.8125 6.671875 -0.484375 6.109375 -0.234375 C 5.554688 0.00390625 4.878906 0.125 4.078125 0.125 Z M 4.078125 0.125 "/></g></g></g><g fill="#0f0147" fill-opacity="1"><g transform="translate(340.619326, 287.896123)"><g><path d="M 3.09375 -7.71875 L 0.046875 -7.71875 L 0.046875 -9.171875 L 7.828125 -9.171875 L 7.828125 -7.71875 L 4.796875 -7.71875 L 4.796875 0 L 3.09375 0 Z M 3.09375 -7.71875 "/></g></g></g><g fill="#0f0147" fill-opacity="1"><g transform="translate(350.207196, 287.896123)"><g><path d="M 7.171875 -2.125 L 2.59375 -2.125 L 1.6875 0 L -0.0625 0 L 4.0625 -9.171875 L 5.734375 -9.171875 L 9.875 0 L 8.09375 0 Z M 6.609375 -3.453125 L 4.890625 -7.46875 L 3.171875 -3.453125 Z M 5.84375 -9.90625 C 5.625 -9.90625 5.429688 -9.945312 5.265625 -10.03125 C 5.109375 -10.125 4.910156 -10.257812 4.671875 -10.4375 C 4.535156 -10.550781 4.421875 -10.632812 4.328125 -10.6875 C 4.234375 -10.75 4.144531 -10.78125 4.0625 -10.78125 C 3.875 -10.78125 3.722656 -10.707031 3.609375 -10.5625 C 3.492188 -10.425781 3.429688 -10.234375 3.421875 -9.984375 L 2.546875 -9.984375 C 2.554688 -10.523438 2.6875 -10.953125 2.9375 -11.265625 C 3.195312 -11.585938 3.535156 -11.75 3.953125 -11.75 C 4.171875 -11.75 4.359375 -11.703125 4.515625 -11.609375 C 4.679688 -11.523438 4.882812 -11.394531 5.125 -11.21875 C 5.257812 -11.101562 5.375 -11.015625 5.46875 -10.953125 C 5.5625 -10.898438 5.648438 -10.875 5.734375 -10.875 C 5.921875 -10.875 6.070312 -10.941406 6.1875 -11.078125 C 6.300781 -11.210938 6.363281 -11.394531 6.375 -11.625 L 7.25 -11.625 C 7.238281 -11.113281 7.101562 -10.695312 6.84375 -10.375 C 6.59375 -10.0625 6.257812 -9.90625 5.84375 -9.90625 Z M 5.84375 -9.90625 "/></g></g></g><g fill="#0f0147" fill-opacity="1"><g transform="translate(361.717549, 287.896123)"><g><path d="M 5.515625 0.125 C 4.578125 0.125 3.734375 -0.078125 2.984375 -0.484375 C 2.234375 -0.890625 1.644531 -1.453125 1.21875 -2.171875 C 0.789062 -2.890625 0.578125 -3.691406 0.578125 -4.578125 C 0.578125 -5.472656 0.789062 -6.28125 1.21875 -7 C 1.644531 -7.71875 2.234375 -8.28125 2.984375 -8.6875 C 3.734375 -9.09375 4.578125 -9.296875 5.515625 -9.296875 C 6.441406 -9.296875 7.28125 -9.09375 8.03125 -8.6875 C 8.789062 -8.28125 9.382812 -7.71875 9.8125 -7 C 10.238281 -6.289062 10.453125 -5.484375 10.453125 -4.578125 C 10.453125 -3.679688 10.238281 -2.875 9.8125 -2.15625 C 9.382812 -1.445312 8.789062 -0.890625 8.03125 -0.484375 C 7.28125 -0.078125 6.441406 0.125 5.515625 0.125 Z M 5.515625 -1.359375 C 6.117188 -1.359375 6.664062 -1.492188 7.15625 -1.765625 C 7.644531 -2.046875 8.03125 -2.429688 8.3125 -2.921875 C 8.59375 -3.421875 8.734375 -3.972656 8.734375 -4.578125 C 8.734375 -5.191406 8.59375 -5.742188 8.3125 -6.234375 C 8.03125 -6.734375 7.644531 -7.117188 7.15625 -7.390625 C 6.664062 -7.660156 6.117188 -7.796875 5.515625 -7.796875 C 4.898438 -7.796875 4.347656 -7.660156 3.859375 -7.390625 C 3.367188 -7.117188 2.984375 -6.734375 2.703125 -6.234375 C 2.429688 -5.742188 2.296875 -5.191406 2.296875 -4.578125 C 2.296875 -3.972656 2.429688 -3.421875 2.703125 -2.921875 C 2.984375 -2.429688 3.367188 -2.046875 3.859375 -1.765625 C 4.347656 -1.492188 4.898438 -1.359375 5.515625 -1.359375 Z M 5.515625 -1.359375 "/></g></g></g><path fill="#cfaa5c" d="M 182.019531 114.378906 C 182.773438 113.277344 184.027344 113.039062 184.027344 113.039062 C 181.066406 114.402344 182.472656 117.253906 182.472656 117.253906 C 182.902344 116.910156 183.445312 116.628906 184.460938 116.410156 C 184.566406 115.699219 185.042969 114.898438 185.996094 114.746094 C 185.023438 115.203125 184.847656 116.410156 184.847656 116.410156 C 185 115.914062 186.339844 115.828125 187.292969 115.828125 C 188.242188 115.828125 189.605469 115.914062 189.734375 116.410156 C 189.734375 116.410156 189.558594 115.203125 188.585938 114.746094 C 189.539062 114.898438 190.015625 115.699219 190.121094 116.410156 C 191.136719 116.628906 191.679688 116.910156 192.109375 117.253906 C 192.109375 117.253906 193.535156 114.402344 190.554688 113.039062 C 190.554688 113.039062 191.808594 113.277344 192.566406 114.378906 C 193.277344 113.625 194.207031 112.15625 194.207031 112.15625 L 192.023438 112.804688 L 192.089844 110.492188 L 190.402344 111.742188 L 190.207031 109.238281 L 188.585938 111.117188 L 187.3125 108.414062 L 186.039062 111.117188 L 184.417969 109.238281 L 184.179688 111.742188 L 182.492188 110.492188 L 182.558594 112.804688 L 180.375 112.15625 C 180.375 112.15625 181.304688 113.625 182.019531 114.378906 Z M 182.019531 114.378906 " fill-opacity="1" fill-rule="nonzero"/><g clip-path="url(#e4cf2a1237)"><path fill="#cfaa5c" d="M 186.167969 206.425781 C 186.449219 205.195312 187.011719 203.898438 187.808594 202.515625 C 192.347656 194.648438 197.6875 185.960938 195.480469 174.3125 C 193.386719 185.335938 183.660156 195.082031 180.265625 202.363281 C 179.726562 203.554688 179.335938 204.65625 179.164062 205.691406 C 181.867188 207.550781 184.503906 209.34375 186.363281 210.621094 C 185.863281 209.300781 185.820312 207.898438 186.167969 206.425781 Z M 186.167969 206.425781 " fill-opacity="1" fill-rule="nonzero"/></g><g clip-path="url(#e9ed8cb42e)"><path fill="#cfaa5c" d="M 170.5625 195.644531 C 163.648438 190.371094 158.199219 183.238281 155.066406 175.113281 C 153.640625 171.457031 152.667969 167.613281 152.214844 163.722656 C 151.738281 160.285156 151.890625 155.25 151.867188 151.726562 L 151.867188 128.472656 C 153.878906 127.671875 155.824219 126.828125 157.769531 125.988281 C 164.707031 122.960938 171.730469 120.214844 179.207031 118.789062 C 171.621094 119.371094 164.144531 121.339844 156.902344 123.609375 C 154.484375 124.34375 152.0625 125.101562 149.683594 125.707031 L 148.496094 126.09375 L 148.496094 151.726562 C 148.5625 155.402344 148.300781 160.5 148.863281 164.132812 C 150.484375 177.921875 158.070312 190.824219 169.332031 198.929688 C 169.632812 199.144531 169.914062 199.359375 170.21875 199.554688 C 170.714844 199.902344 171.296875 200.289062 171.925781 200.722656 C 172.054688 199.511719 172.378906 198.34375 172.8125 197.265625 C 173.71875 194.953125 175.167969 192.964844 176.507812 191.472656 C 179.25 188.402344 180.222656 185.550781 180.546875 184.1875 L 178.925781 182.609375 C 177.78125 188.554688 173.136719 190.757812 170.5625 195.644531 Z M 170.5625 195.644531 " fill-opacity="1" fill-rule="nonzero"/></g><path fill="#cfaa5c" d="M 180.546875 184.210938 C 179.878906 189.851562 175.816406 192.273438 174.152344 198.195312 C 174.109375 198.367188 174.042969 198.5625 174 198.753906 C 173.71875 199.921875 173.632812 200.980469 173.695312 201.996094 C 174.992188 202.882812 176.421875 203.878906 177.847656 204.851562 C 178.105469 203.769531 178.539062 202.6875 179.058594 201.585938 C 180.914062 197.738281 184.070312 193.828125 186.082031 190.261719 Z M 180.546875 184.210938 " fill-opacity="1" fill-rule="nonzero"/><path fill="#cfaa5c" d="M 159.628906 157.433594 L 159.714844 159.570312 C 159.734375 160.070312 160.101562 160.5 160.601562 160.566406 L 161.421875 160.695312 L 162.394531 159.808594 L 162.4375 159.097656 C 162.457031 158.597656 162.15625 158.167969 161.679688 158.015625 Z M 159.628906 157.433594 " fill-opacity="1" fill-rule="nonzero"/><g clip-path="url(#1e6aac7549)"><path fill="#cfaa5c" d="M 226.5625 151.726562 L 226.5625 126.09375 C 220.445312 124.34375 214.261719 122.464844 207.996094 121.015625 C 207.347656 118.703125 206.742188 116.195312 206.351562 114.769531 C 205.769531 112.652344 204.105469 110.769531 203.480469 109.367188 C 203.066406 108.457031 202.441406 108.414062 201.792969 108.804688 C 199.871094 106.363281 203.242188 102.429688 201.554688 100.332031 C 202.355469 102.644531 200.539062 104.375 200.5625 106.988281 C 200.519531 108.027344 200.886719 108.78125 201.296875 109.300781 C 201.1875 109.472656 201.078125 109.667969 200.949219 109.691406 C 200.429688 109.820312 200.429688 110.445312 200.429688 110.445312 C 200.429688 110.445312 200.019531 110.707031 200.105469 111.203125 C 200.324219 112.371094 200.929688 112.109375 202.613281 113.0625 C 204.300781 114.011719 204.777344 117.210938 205.054688 119.589844 C 205.078125 119.847656 205.121094 120.109375 205.164062 120.390625 C 202.03125 119.742188 198.898438 119.242188 195.71875 118.941406 C 198.984375 119.609375 202.183594 120.519531 205.316406 121.554688 C 205.617188 123.761719 206.050781 126.3125 206.394531 127.238281 C 206.828125 128.363281 207.738281 128.839844 207.910156 128.925781 C 203.347656 126.589844 199.242188 130.136719 192.738281 129.660156 C 190.273438 129.488281 189.28125 127.046875 189.324219 125.445312 C 189.386719 123.824219 189.839844 123.695312 190.964844 122.378906 C 191.722656 121.492188 191.851562 119.804688 191.851562 119.804688 C 191.851562 119.804688 190.769531 118.636719 188.371094 118.8125 C 187.984375 118.550781 187.679688 118.464844 187.335938 118.464844 C 186.988281 118.464844 186.707031 118.550781 186.296875 118.8125 C 183.875 118.636719 182.816406 119.804688 182.816406 119.804688 C 182.816406 119.804688 182.945312 121.492188 183.703125 122.378906 C 184.828125 123.695312 185.347656 123.824219 185.390625 125.445312 C 185.453125 127.066406 184.222656 127.714844 182.363281 129.207031 C 180.503906 130.699219 181.324219 132.601562 182.644531 133.441406 C 181.238281 131.539062 182.710938 130.027344 182.710938 130.027344 C 182.167969 131.863281 184.199219 133.074219 186.773438 135.105469 C 189.324219 137.136719 188.609375 140.878906 185.691406 142.996094 C 187.183594 138.285156 185.171875 135.992188 183.078125 135.085938 C 185.691406 137.59375 184.417969 140.078125 184.417969 140.078125 C 184.308594 136.078125 176.808594 135.367188 179.726562 129.8125 C 174.582031 129.8125 171.621094 139.730469 170.910156 143.902344 C 168.421875 146.128906 166.433594 150.710938 166.003906 153.261719 C 165.59375 155.8125 164.921875 157.519531 164.339844 158.46875 C 163.753906 159.421875 162.113281 160.609375 161.851562 161.128906 C 161.59375 161.648438 161.789062 162.253906 162.113281 162.253906 C 162.5 161.429688 163.515625 160.890625 163.515625 160.890625 C 163.128906 161.191406 162.351562 161.929688 162.21875 162.578125 C 162.089844 163.222656 162.933594 164.046875 162.933594 164.046875 C 162.933594 164.046875 162.738281 163.679688 163.191406 163.09375 C 163.753906 162.359375 164.402344 162.164062 164.402344 162.164062 C 163.839844 162.511719 163.171875 163.246094 163.128906 164.261719 C 163.0625 165.277344 163.929688 165.6875 163.929688 165.6875 C 163.820312 163.765625 164.902344 162.835938 166.003906 162.921875 C 164.988281 163.222656 164.210938 164.152344 164.164062 165.277344 L 164.121094 166.316406 L 160.96875 167.65625 L 163.734375 170.679688 L 165.332031 167.65625 L 167.472656 167.742188 L 185.886719 187.734375 L 188.15625 188.664062 L 187.421875 186.328125 L 169.027344 166.316406 L 169.113281 164.175781 L 172.269531 162.835938 L 170.886719 161.324219 L 169.503906 159.808594 L 167.90625 162.835938 L 166.867188 162.792969 C 166.671875 162.792969 166.5 162.792969 166.328125 162.835938 C 167.601562 160.480469 166.609375 159.527344 167.019531 157.820312 C 167.449219 156.09375 170.453125 150.320312 171.707031 148.722656 C 172.378906 147.835938 172.765625 146.820312 172.960938 146.085938 C 174.757812 143.902344 178.277344 137.3125 178.277344 137.3125 C 178.257812 141.203125 180.117188 141.613281 180.117188 141.613281 C 179.554688 151.359375 183.269531 154.601562 185.023438 156.113281 C 181.800781 154.730469 180.632812 151.230469 180.632812 151.230469 C 174 161.085938 176.246094 168.996094 179.078125 173.988281 C 179.921875 175.457031 181.195312 177.011719 182.386719 178.613281 C 187.832031 174.226562 191.417969 165.6875 191.417969 165.6875 C 190.425781 172.214844 185.691406 177.554688 183.488281 179.800781 C 186.082031 182.652344 188.71875 185.527344 188.71875 185.527344 C 193.753906 179.605469 196.023438 168.84375 196.585938 162.621094 C 197.125 156.589844 194.726562 152.074219 194.726562 152.074219 C 194.769531 155.59375 188.609375 167.332031 183.550781 169.773438 C 188.4375 166.359375 192.109375 156.417969 193.039062 154.449219 C 193.992188 152.484375 193.582031 150.710938 193.582031 150.710938 C 188.285156 160.675781 181.886719 162.554688 181.886719 162.554688 C 186.40625 160.113281 193.363281 149.910156 193.167969 149.242188 C 192.976562 148.570312 192.910156 145.828125 193.234375 144.464844 C 193.558594 143.101562 193.667969 140.878906 193.667969 140.878906 C 193.667969 140.878906 194.421875 140.511719 195.007812 139.644531 C 196.195312 137.851562 195.050781 135.453125 195.957031 134.632812 C 197.46875 133.03125 201.921875 133.617188 206.417969 132.101562 C 206.441406 137.960938 206.394531 144.226562 206.570312 150.105469 C 204.582031 150.234375 203.609375 151.878906 202.464844 152.742188 C 201.253906 153.648438 199.632812 154.277344 198.292969 152.117188 C 197.664062 153.628906 199.523438 155.703125 202.484375 154.210938 C 205.425781 152.722656 206.222656 153.519531 206.546875 154.710938 C 206.570312 154.796875 206.589844 155.960938 206.589844 157.671875 L 200.019531 173.144531 L 198.789062 173.144531 C 199.71875 176.644531 202.894531 179.21875 206.675781 179.21875 C 210.460938 179.21875 213.65625 176.644531 214.566406 173.144531 L 213.335938 173.144531 L 207.132812 157.582031 C 207.152344 155.898438 207.175781 154.753906 207.195312 154.6875 C 207.519531 153.5 208.320312 152.699219 211.257812 154.191406 C 214.199219 155.683594 216.078125 153.605469 215.453125 152.09375 C 214.113281 154.253906 212.492188 153.628906 211.28125 152.722656 C 210.136719 151.855469 209.140625 150.234375 207.175781 150.085938 C 207.21875 148.9375 207.21875 147.773438 207.238281 146.625 C 207.261719 143.988281 207.28125 138.695312 207.304688 136.078125 C 207.324219 134.652344 207.304688 133.203125 207.304688 131.777344 C 207.519531 131.691406 207.757812 131.605469 207.972656 131.496094 C 211.863281 129.703125 210.375 127.695312 208.96875 124.105469 C 208.796875 123.675781 208.644531 123.199219 208.472656 122.679688 C 213.421875 124.472656 218.261719 126.527344 223.167969 128.472656 L 223.167969 151.75 C 223.101562 155.25 223.363281 160.308594 222.820312 163.742188 C 221.4375 175.457031 215.453125 186.542969 206.394531 194.128906 C 204.925781 195.40625 203.242188 196.574219 201.640625 197.675781 C 200.90625 198.171875 199.914062 198.863281 198.765625 199.640625 C 196.714844 194.628906 196.5625 187.925781 196.5625 187.925781 C 195.070312 193.351562 192.328125 198.105469 189.777344 202.515625 L 189.28125 203.378906 C 188.910156 204.027344 188.414062 204.957031 188.046875 206.058594 C 188.046875 206.058594 188.046875 206.082031 188.046875 206.082031 C 188.027344 206.125 188.003906 206.191406 187.984375 206.234375 C 187.960938 206.277344 187.960938 206.320312 187.9375 206.363281 C 187.832031 206.664062 187.765625 206.945312 187.722656 207.226562 C 187.703125 207.3125 187.703125 207.398438 187.679688 207.464844 C 187.660156 207.660156 187.636719 207.832031 187.636719 208.003906 C 187.59375 209.128906 187.9375 210.058594 188.457031 210.792969 C 189.992188 209.734375 193.148438 207.59375 195.523438 205.972656 C 195.375 205.519531 195.113281 205.042969 194.746094 204.546875 C 194.378906 204.070312 194.121094 203.511719 193.949219 202.949219 C 193.472656 201.371094 193.710938 199.683594 194.078125 199.015625 C 193.992188 199.921875 193.96875 201.304688 194.464844 202.582031 C 194.703125 203.207031 195.050781 203.789062 195.570312 204.308594 C 195.894531 204.632812 196.128906 205.023438 196.304688 205.433594 C 197.558594 204.570312 198.464844 203.964844 198.550781 203.878906 L 200.429688 202.582031 L 203.585938 200.417969 C 215.96875 192.378906 224.507812 178.785156 226.195312 164.109375 C 226.691406 160.5 226.539062 155.421875 226.5625 151.726562 Z M 200.519531 173.144531 L 206.632812 158.816406 C 206.632812 163.546875 206.613281 170.941406 206.613281 173.144531 Z M 212.835938 173.144531 L 206.980469 173.144531 C 207 170.984375 207.042969 163.527344 207.109375 158.773438 Z M 212.835938 173.144531 " fill-opacity="1" fill-rule="nonzero"/></g></svg>