<svg xmlns="http://www.w3.org/2000/svg" xmlns:xlink="http://www.w3.org/1999/xlink" width="145" height="33" viewBox="0 0 145 33" fill="none" preserveAspectRatio="xMidYMid meet" version="1.0"><defs><g/><clipPath id="578b96ed57"><path d="M 179 174 L 196 174 L 196 210.796875 L 179 210.796875 Z M 179 174 " clip-rule="nonzero"/></clipPath><clipPath id="6e36b81b1f"><path d="M 148.285156 118 L 181 118 L 181 201 L 148.285156 201 Z M 148.285156 118 " clip-rule="nonzero"/></clipPath><clipPath id="8ccf1ebe31"><path d="M 160 100.332031 L 226.714844 100.332031 L 226.714844 210.796875 L 160 210.796875 Z M 160 100.332031 " clip-rule="nonzero"/></clipPath></defs><g fill="#f4f6fc" fill-opacity="1"><g transform="translate(0.0000045, 254.056488)"><g><path d="M 26.359375 0 L 20.578125 0 L 8.71875 -15.859375 L 8.71875 0 L 2.578125 0 L 2.578125 -25.765625 L 8.359375 -25.765625 L 20.25 -9.859375 L 20.25 -25.765625 L 26.359375 -25.765625 Z M 26.359375 0 "/></g></g></g><g fill="#f4f6fc" fill-opacity="1"><g transform="translate(28.936971, 254.056488)"><g><path d="M 22.75 -20.609375 L 9.125 -20.609375 L 9.125 -15.5 L 21.421875 -15.5 L 21.421875 -10.34375 L 9.125 -10.34375 L 9.125 -5.15625 L 23.15625 -5.15625 L 23.15625 0 L 2.578125 0 L 2.578125 -25.765625 L 22.75 -25.765625 Z M 22.75 -20.609375 "/></g></g></g><g fill="#f4f6fc" fill-opacity="1"><g transform="translate(53.750601, 254.056488)"><g><path d="M 17.515625 -13.46875 L 26.765625 0 L 18.921875 0 L 13.359375 -8.203125 L 7.796875 0 L 0.1875 0 L 9.390625 -13.171875 L 0.765625 -25.765625 L 8.390625 -25.765625 L 13.359375 -18.265625 L 18.328125 -25.765625 L 26.03125 -25.765625 Z M 17.515625 -13.46875 "/></g></g></g><g fill="#f4f6fc" fill-opacity="1"><g transform="translate(80.773165, 254.056488)"><g><path d="M 25.765625 -25.765625 L 25.765625 -10.828125 C 25.765625 -7.410156 24.707031 -4.703125 22.59375 -2.703125 C 20.488281 -0.703125 17.632812 0.296875 14.03125 0.296875 C 10.394531 0.296875 7.503906 -0.703125 5.359375 -2.703125 C 3.210938 -4.703125 2.140625 -7.410156 2.140625 -10.828125 L 2.140625 -25.765625 L 8.6875 -25.765625 L 8.6875 -10.828125 C 8.6875 -9.109375 9.179688 -7.738281 10.171875 -6.71875 C 11.171875 -5.695312 12.46875 -5.1875 14.0625 -5.1875 C 15.632812 -5.1875 16.890625 -5.6875 17.828125 -6.6875 C 18.773438 -7.695312 19.25 -9.078125 19.25 -10.828125 L 19.25 -25.765625 Z M 25.765625 -25.765625 "/></g></g></g><g fill="#f4f6fc" fill-opacity="1"><g transform="translate(108.679298, 254.056488)"><g><path d="M 12.484375 -26.0625 C 16.335938 -26.0625 19.722656 -25.101562 22.640625 -23.1875 L 20.171875 -18.078125 C 18.828125 -18.859375 17.378906 -19.5 15.828125 -20 C 14.285156 -20.507812 12.984375 -20.765625 11.921875 -20.765625 C 10.035156 -20.765625 9.09375 -20.140625 9.09375 -18.890625 C 9.09375 -18.078125 9.554688 -17.425781 10.484375 -16.9375 C 11.421875 -16.445312 12.554688 -16.019531 13.890625 -15.65625 C 15.234375 -15.300781 16.570312 -14.875 17.90625 -14.375 C 19.25 -13.875 20.382812 -13.054688 21.3125 -11.921875 C 22.25 -10.796875 22.71875 -9.375 22.71875 -7.65625 C 22.71875 -5.175781 21.742188 -3.242188 19.796875 -1.859375 C 17.859375 -0.472656 15.394531 0.21875 12.40625 0.21875 C 10.269531 0.21875 8.15625 -0.144531 6.0625 -0.875 C 3.976562 -1.613281 2.164062 -2.625 0.625 -3.90625 L 3.171875 -8.953125 C 4.460938 -7.816406 5.992188 -6.882812 7.765625 -6.15625 C 9.535156 -5.4375 11.109375 -5.078125 12.484375 -5.078125 C 13.535156 -5.078125 14.351562 -5.265625 14.9375 -5.640625 C 15.53125 -6.023438 15.828125 -6.585938 15.828125 -7.328125 C 15.828125 -8.035156 15.488281 -8.628906 14.8125 -9.109375 C 14.144531 -9.585938 13.304688 -9.941406 12.296875 -10.171875 C 11.285156 -10.410156 10.191406 -10.722656 9.015625 -11.109375 C 7.835938 -11.503906 6.742188 -11.9375 5.734375 -12.40625 C 4.734375 -12.875 3.894531 -13.613281 3.21875 -14.625 C 2.539062 -15.644531 2.203125 -16.867188 2.203125 -18.296875 C 2.203125 -20.648438 3.140625 -22.53125 5.015625 -23.9375 C 6.898438 -25.351562 9.390625 -26.0625 12.484375 -26.0625 Z M 12.484375 -26.0625 "/></g></g></g><g fill="#f4f6fc" fill-opacity="1"><g transform="translate(132.388471, 254.056488)"><g/></g></g><g fill="#f4f6fc" fill-opacity="1"><g transform="translate(140.929665, 254.056488)"><g><path d="M 19.6875 -4.75 L 8.4375 -4.75 L 6.546875 0 L -0.1875 0 L 10.9375 -25.765625 L 17.671875 -25.765625 L 28.53125 0 L 21.53125 0 Z M 17.78125 -9.71875 L 14.09375 -19.25 L 10.34375 -9.71875 Z M 17.78125 -9.71875 "/></g></g></g><g fill="#f4f6fc" fill-opacity="1"><g transform="translate(169.277577, 254.056488)"><g><path d="M 2.578125 -25.765625 L 13.65625 -25.765625 C 17.707031 -25.765625 21.003906 -24.570312 23.546875 -22.1875 C 26.085938 -19.8125 27.359375 -16.710938 27.359375 -12.890625 C 27.359375 -9.078125 26.066406 -5.972656 23.484375 -3.578125 C 20.910156 -1.191406 17.550781 0 13.40625 0 L 2.578125 0 Z M 9.125 -20.546875 L 9.125 -5.234375 L 13.8125 -5.234375 C 15.820312 -5.234375 17.46875 -5.9375 18.75 -7.34375 C 20.039062 -8.75 20.6875 -10.582031 20.6875 -12.84375 C 20.6875 -15.101562 20.007812 -16.953125 18.65625 -18.390625 C 17.3125 -19.828125 15.597656 -20.546875 13.515625 -20.546875 Z M 9.125 -20.546875 "/></g></g></g><g fill="#f4f6fc" fill-opacity="1"><g transform="translate(197.515053, 254.056488)"><g><path d="M 16.75 0 L 9.96875 0 L -0.03125 -25.765625 L 6.953125 -25.765625 L 13.546875 -6.8125 L 20.140625 -25.765625 L 26.875 -25.765625 Z M 16.75 0 "/></g></g></g><g fill="#f4f6fc" fill-opacity="1"><g transform="translate(224.353531, 254.056488)"><g><path d="M 14.796875 -25.984375 C 18.796875 -25.984375 22.117188 -24.738281 24.765625 -22.25 C 27.421875 -19.757812 28.75 -16.648438 28.75 -12.921875 C 28.75 -9.160156 27.414062 -6.015625 24.75 -3.484375 C 22.09375 -0.960938 18.773438 0.296875 14.796875 0.296875 C 10.816406 0.296875 7.503906 -0.957031 4.859375 -3.46875 C 2.210938 -5.988281 0.890625 -9.140625 0.890625 -12.921875 C 0.890625 -16.671875 2.210938 -19.785156 4.859375 -22.265625 C 7.503906 -24.742188 10.816406 -25.984375 14.796875 -25.984375 Z M 14.875 -20.5 C 12.863281 -20.5 11.144531 -19.769531 9.71875 -18.3125 C 8.289062 -16.851562 7.578125 -15.039062 7.578125 -12.875 C 7.578125 -10.71875 8.296875 -8.894531 9.734375 -7.40625 C 11.171875 -5.925781 12.882812 -5.1875 14.875 -5.1875 C 16.863281 -5.1875 18.550781 -5.925781 19.9375 -7.40625 C 21.320312 -8.894531 22.015625 -10.71875 22.015625 -12.875 C 22.015625 -15.039062 21.320312 -16.851562 19.9375 -18.3125 C 18.550781 -19.769531 16.863281 -20.5 14.875 -20.5 Z M 14.875 -20.5 "/></g></g></g><g fill="#f4f6fc" fill-opacity="1"><g transform="translate(253.989988, 254.056488)"><g><path d="M 14.65625 -25.984375 C 16.5625 -25.984375 18.441406 -25.59375 20.296875 -24.8125 C 22.148438 -24.03125 23.726562 -22.972656 25.03125 -21.640625 L 21.234375 -17.15625 C 20.398438 -18.1875 19.398438 -19 18.234375 -19.59375 C 17.066406 -20.195312 15.910156 -20.5 14.765625 -20.5 C 12.722656 -20.5 11.015625 -19.78125 9.640625 -18.34375 C 8.265625 -16.914062 7.578125 -15.144531 7.578125 -13.03125 C 7.578125 -10.875 8.265625 -9.070312 9.640625 -7.625 C 11.015625 -6.175781 12.722656 -5.453125 14.765625 -5.453125 C 15.835938 -5.453125 16.957031 -5.71875 18.125 -6.25 C 19.289062 -6.789062 20.328125 -7.53125 21.234375 -8.46875 L 25.0625 -4.421875 C 23.664062 -2.992188 22.015625 -1.847656 20.109375 -0.984375 C 18.210938 -0.128906 16.320312 0.296875 14.4375 0.296875 C 10.550781 0.296875 7.320312 -0.960938 4.75 -3.484375 C 2.175781 -6.015625 0.890625 -9.171875 0.890625 -12.953125 C 0.890625 -16.660156 2.203125 -19.757812 4.828125 -22.25 C 7.453125 -24.738281 10.726562 -25.984375 14.65625 -25.984375 Z M 14.65625 -25.984375 "/></g></g></g><g fill="#f4f6fc" fill-opacity="1"><g transform="translate(279.466297, 254.056488)"><g><path d="M 19.6875 -4.75 L 8.4375 -4.75 L 6.546875 0 L -0.1875 0 L 10.9375 -25.765625 L 17.671875 -25.765625 L 28.53125 0 L 21.53125 0 Z M 17.78125 -9.71875 L 14.09375 -19.25 L 10.34375 -9.71875 Z M 17.78125 -9.71875 "/></g></g></g><g fill="#f4f6fc" fill-opacity="1"><g transform="translate(307.814209, 254.056488)"><g><path d="M 14.65625 -25.984375 C 16.5625 -25.984375 18.441406 -25.59375 20.296875 -24.8125 C 22.148438 -24.03125 23.726562 -22.972656 25.03125 -21.640625 L 21.234375 -17.15625 C 20.398438 -18.1875 19.398438 -19 18.234375 -19.59375 C 17.066406 -20.195312 15.910156 -20.5 14.765625 -20.5 C 12.722656 -20.5 11.015625 -19.78125 9.640625 -18.34375 C 8.265625 -16.914062 7.578125 -15.144531 7.578125 -13.03125 C 7.578125 -10.875 8.265625 -9.070312 9.640625 -7.625 C 11.015625 -6.175781 12.722656 -5.453125 14.765625 -5.453125 C 15.835938 -5.453125 16.957031 -5.71875 18.125 -6.25 C 19.289062 -6.789062 20.328125 -7.53125 21.234375 -8.46875 L 25.0625 -4.421875 C 23.664062 -2.992188 22.015625 -1.847656 20.109375 -0.984375 C 18.210938 -0.128906 16.320312 0.296875 14.4375 0.296875 C 10.550781 0.296875 7.320312 -0.960938 4.75 -3.484375 C 2.175781 -6.015625 0.890625 -9.171875 0.890625 -12.953125 C 0.890625 -16.660156 2.203125 -19.757812 4.828125 -22.25 C 7.453125 -24.738281 10.726562 -25.984375 14.65625 -25.984375 Z M 14.65625 -25.984375 "/></g></g></g><g fill="#f4f6fc" fill-opacity="1"><g transform="translate(333.290535, 254.056488)"><g><path d="M 9.125 0 L 2.578125 0 L 2.578125 -25.765625 L 9.125 -25.765625 Z M 9.125 0 "/></g></g></g><g fill="#f4f6fc" fill-opacity="1"><g transform="translate(344.997856, 254.056488)"><g><path d="M 19.6875 -4.75 L 8.4375 -4.75 L 6.546875 0 L -0.1875 0 L 10.9375 -25.765625 L 17.671875 -25.765625 L 28.53125 0 L 21.53125 0 Z M 17.78125 -9.71875 L 14.09375 -19.25 L 10.34375 -9.71875 Z M 17.78125 -9.71875 "/></g></g></g><g fill="#f4f6fc" fill-opacity="1"><g transform="translate(373.349477, 254.056488)"><g/></g></g><g fill="#f4f6fc" fill-opacity="1"><g transform="translate(231.261986, 271.358006)"><g><path d="M 3.453125 0.109375 C 2.847656 0.109375 2.265625 0.0234375 1.703125 -0.140625 C 1.148438 -0.316406 0.710938 -0.546875 0.390625 -0.828125 L 0.890625 -1.9375 C 1.203125 -1.6875 1.585938 -1.484375 2.046875 -1.328125 C 2.515625 -1.171875 2.984375 -1.09375 3.453125 -1.09375 C 4.023438 -1.09375 4.453125 -1.179688 4.734375 -1.359375 C 5.023438 -1.546875 5.171875 -1.789062 5.171875 -2.09375 C 5.171875 -2.3125 5.085938 -2.492188 4.921875 -2.640625 C 4.765625 -2.785156 4.5625 -2.898438 4.3125 -2.984375 C 4.070312 -3.066406 3.742188 -3.160156 3.328125 -3.265625 C 2.734375 -3.398438 2.253906 -3.535156 1.890625 -3.671875 C 1.523438 -3.816406 1.210938 -4.039062 0.953125 -4.34375 C 0.691406 -4.644531 0.5625 -5.050781 0.5625 -5.5625 C 0.5625 -5.988281 0.675781 -6.375 0.90625 -6.71875 C 1.132812 -7.070312 1.484375 -7.351562 1.953125 -7.5625 C 2.421875 -7.769531 3 -7.875 3.6875 -7.875 C 4.15625 -7.875 4.617188 -7.8125 5.078125 -7.6875 C 5.535156 -7.570312 5.929688 -7.40625 6.265625 -7.1875 L 5.8125 -6.0625 C 5.46875 -6.269531 5.109375 -6.421875 4.734375 -6.515625 C 4.367188 -6.617188 4.015625 -6.671875 3.671875 -6.671875 C 3.097656 -6.671875 2.671875 -6.578125 2.390625 -6.390625 C 2.117188 -6.203125 1.984375 -5.945312 1.984375 -5.625 C 1.984375 -5.40625 2.0625 -5.222656 2.21875 -5.078125 C 2.382812 -4.941406 2.585938 -4.832031 2.828125 -4.75 C 3.066406 -4.664062 3.398438 -4.570312 3.828125 -4.46875 C 4.398438 -4.332031 4.867188 -4.191406 5.234375 -4.046875 C 5.609375 -3.910156 5.925781 -3.691406 6.1875 -3.390625 C 6.457031 -3.097656 6.59375 -2.703125 6.59375 -2.203125 C 6.59375 -1.765625 6.472656 -1.375 6.234375 -1.03125 C 6.003906 -0.6875 5.648438 -0.410156 5.171875 -0.203125 C 4.703125 0.00390625 4.128906 0.109375 3.453125 0.109375 Z M 3.453125 0.109375 "/></g></g></g><g fill="#f4f6fc" fill-opacity="1"><g transform="translate(239.690166, 271.358006)"><g><path d="M 1.046875 -7.765625 L 2.484375 -7.765625 L 2.484375 0 L 1.046875 0 Z M 1.046875 -7.765625 "/></g></g></g><g fill="#f4f6fc" fill-opacity="1"><g transform="translate(244.680587, 271.358006)"><g><path d="M 3.453125 0.109375 C 2.847656 0.109375 2.265625 0.0234375 1.703125 -0.140625 C 1.148438 -0.316406 0.710938 -0.546875 0.390625 -0.828125 L 0.890625 -1.9375 C 1.203125 -1.6875 1.585938 -1.484375 2.046875 -1.328125 C 2.515625 -1.171875 2.984375 -1.09375 3.453125 -1.09375 C 4.023438 -1.09375 4.453125 -1.179688 4.734375 -1.359375 C 5.023438 -1.546875 5.171875 -1.789062 5.171875 -2.09375 C 5.171875 -2.3125 5.085938 -2.492188 4.921875 -2.640625 C 4.765625 -2.785156 4.5625 -2.898438 4.3125 -2.984375 C 4.070312 -3.066406 3.742188 -3.160156 3.328125 -3.265625 C 2.734375 -3.398438 2.253906 -3.535156 1.890625 -3.671875 C 1.523438 -3.816406 1.210938 -4.039062 0.953125 -4.34375 C 0.691406 -4.644531 0.5625 -5.050781 0.5625 -5.5625 C 0.5625 -5.988281 0.675781 -6.375 0.90625 -6.71875 C 1.132812 -7.070312 1.484375 -7.351562 1.953125 -7.5625 C 2.421875 -7.769531 3 -7.875 3.6875 -7.875 C 4.15625 -7.875 4.617188 -7.8125 5.078125 -7.6875 C 5.535156 -7.570312 5.929688 -7.40625 6.265625 -7.1875 L 5.8125 -6.0625 C 5.46875 -6.269531 5.109375 -6.421875 4.734375 -6.515625 C 4.367188 -6.617188 4.015625 -6.671875 3.671875 -6.671875 C 3.097656 -6.671875 2.671875 -6.578125 2.390625 -6.390625 C 2.117188 -6.203125 1.984375 -5.945312 1.984375 -5.625 C 1.984375 -5.40625 2.0625 -5.222656 2.21875 -5.078125 C 2.382812 -4.941406 2.585938 -4.832031 2.828125 -4.75 C 3.066406 -4.664062 3.398438 -4.570312 3.828125 -4.46875 C 4.398438 -4.332031 4.867188 -4.191406 5.234375 -4.046875 C 5.609375 -3.910156 5.925781 -3.691406 6.1875 -3.390625 C 6.457031 -3.097656 6.59375 -2.703125 6.59375 -2.203125 C 6.59375 -1.765625 6.472656 -1.375 6.234375 -1.03125 C 6.003906 -0.6875 5.648438 -0.410156 5.171875 -0.203125 C 4.703125 0.00390625 4.128906 0.109375 3.453125 0.109375 Z M 3.453125 0.109375 "/></g></g></g><g fill="#f4f6fc" fill-opacity="1"><g transform="translate(253.108768, 271.358006)"><g><path d="M 2.625 -6.546875 L 0.046875 -6.546875 L 0.046875 -7.765625 L 6.640625 -7.765625 L 6.640625 -6.546875 L 4.0625 -6.546875 L 4.0625 0 L 2.625 0 Z M 2.625 -6.546875 "/></g></g></g><g fill="#f4f6fc" fill-opacity="1"><g transform="translate(261.237527, 271.358006)"><g><path d="M 6.859375 -1.203125 L 6.859375 0 L 1.046875 0 L 1.046875 -7.765625 L 6.71875 -7.765625 L 6.71875 -6.5625 L 2.484375 -6.5625 L 2.484375 -4.53125 L 6.234375 -4.53125 L 6.234375 -3.34375 L 2.484375 -3.34375 L 2.484375 -1.203125 Z M 6.859375 -1.203125 "/></g></g></g><g fill="#f4f6fc" fill-opacity="1"><g transform="translate(270.120372, 271.358006)"><g><path d="M 8.171875 0 L 8.171875 -5.140625 L 5.609375 -0.890625 L 4.96875 -0.890625 L 2.421875 -5.078125 L 2.421875 0 L 1.046875 0 L 1.046875 -7.765625 L 2.234375 -7.765625 L 5.3125 -2.625 L 8.34375 -7.765625 L 9.53125 -7.765625 L 9.546875 0 Z M 8.171875 0 "/></g></g></g><g fill="#f4f6fc" fill-opacity="1"><g transform="translate(282.163739, 271.358006)"><g><path d="M 6.078125 -1.796875 L 2.203125 -1.796875 L 1.4375 0 L -0.0625 0 L 3.4375 -7.765625 L 4.859375 -7.765625 L 8.359375 0 L 6.859375 0 Z M 5.609375 -2.921875 L 4.140625 -6.328125 L 2.6875 -2.921875 Z M 5.609375 -2.921875 "/></g></g></g><g fill="#f4f6fc" fill-opacity="1"><g transform="translate(291.92266, 271.358006)"><g/></g></g><g fill="#f4f6fc" fill-opacity="1"><g transform="translate(296.436232, 271.358006)"><g><path d="M 1.046875 -7.765625 L 4.4375 -7.765625 C 5.269531 -7.765625 6.003906 -7.601562 6.640625 -7.28125 C 7.285156 -6.957031 7.785156 -6.5 8.140625 -5.90625 C 8.492188 -5.320312 8.671875 -4.648438 8.671875 -3.890625 C 8.671875 -3.117188 8.492188 -2.4375 8.140625 -1.84375 C 7.785156 -1.257812 7.285156 -0.804688 6.640625 -0.484375 C 6.003906 -0.160156 5.269531 0 4.4375 0 L 1.046875 0 Z M 4.375 -1.21875 C 4.9375 -1.21875 5.429688 -1.328125 5.859375 -1.546875 C 6.296875 -1.765625 6.628906 -2.070312 6.859375 -2.46875 C 7.097656 -2.875 7.21875 -3.347656 7.21875 -3.890625 C 7.21875 -4.421875 7.097656 -4.882812 6.859375 -5.28125 C 6.628906 -5.6875 6.296875 -6 5.859375 -6.21875 C 5.429688 -6.4375 4.9375 -6.546875 4.375 -6.546875 L 2.484375 -6.546875 L 2.484375 -1.21875 Z M 4.375 -1.21875 "/></g></g></g><g fill="#f4f6fc" fill-opacity="1"><g transform="translate(307.049051, 271.358006)"><g><path d="M 6.859375 -1.203125 L 6.859375 0 L 1.046875 0 L 1.046875 -7.765625 L 6.71875 -7.765625 L 6.71875 -6.5625 L 2.484375 -6.5625 L 2.484375 -4.53125 L 6.234375 -4.53125 L 6.234375 -3.34375 L 2.484375 -3.34375 L 2.484375 -1.203125 Z M 6.859375 -1.203125 "/></g></g></g><g fill="#f4f6fc" fill-opacity="1"><g transform="translate(315.931896, 271.358006)"><g/></g></g><g fill="#f4f6fc" fill-opacity="1"><g transform="translate(320.445468, 271.358006)"><g><path d="M 6.34375 -3.96875 L 7.703125 -3.96875 L 7.703125 -0.875 C 7.304688 -0.5625 6.84375 -0.316406 6.3125 -0.140625 C 5.78125 0.0234375 5.234375 0.109375 4.671875 0.109375 C 3.878906 0.109375 3.164062 -0.0625 2.53125 -0.40625 C 1.894531 -0.75 1.394531 -1.222656 1.03125 -1.828125 C 0.664062 -2.429688 0.484375 -3.117188 0.484375 -3.890625 C 0.484375 -4.648438 0.664062 -5.332031 1.03125 -5.9375 C 1.394531 -6.539062 1.894531 -7.015625 2.53125 -7.359375 C 3.175781 -7.703125 3.894531 -7.875 4.6875 -7.875 C 5.34375 -7.875 5.9375 -7.765625 6.46875 -7.546875 C 7 -7.335938 7.445312 -7.023438 7.8125 -6.609375 L 6.90625 -5.71875 C 6.3125 -6.3125 5.597656 -6.609375 4.765625 -6.609375 C 4.210938 -6.609375 3.722656 -6.492188 3.296875 -6.265625 C 2.867188 -6.035156 2.535156 -5.710938 2.296875 -5.296875 C 2.054688 -4.890625 1.9375 -4.421875 1.9375 -3.890625 C 1.9375 -3.367188 2.054688 -2.898438 2.296875 -2.484375 C 2.535156 -2.066406 2.867188 -1.738281 3.296875 -1.5 C 3.722656 -1.269531 4.207031 -1.15625 4.75 -1.15625 C 5.351562 -1.15625 5.882812 -1.285156 6.34375 -1.546875 Z M 6.34375 -3.96875 "/></g></g></g><g fill="#f4f6fc" fill-opacity="1"><g transform="translate(330.459445, 271.358006)"><g><path d="M 6.859375 -1.203125 L 6.859375 0 L 1.046875 0 L 1.046875 -7.765625 L 6.71875 -7.765625 L 6.71875 -6.5625 L 2.484375 -6.5625 L 2.484375 -4.53125 L 6.234375 -4.53125 L 6.234375 -3.34375 L 2.484375 -3.34375 L 2.484375 -1.203125 Z M 6.859375 -1.203125 "/></g></g></g><g fill="#f4f6fc" fill-opacity="1"><g transform="translate(339.34229, 271.358006)"><g><path d="M 3.453125 0.109375 C 2.847656 0.109375 2.265625 0.0234375 1.703125 -0.140625 C 1.148438 -0.316406 0.710938 -0.546875 0.390625 -0.828125 L 0.890625 -1.9375 C 1.203125 -1.6875 1.585938 -1.484375 2.046875 -1.328125 C 2.515625 -1.171875 2.984375 -1.09375 3.453125 -1.09375 C 4.023438 -1.09375 4.453125 -1.179688 4.734375 -1.359375 C 5.023438 -1.546875 5.171875 -1.789062 5.171875 -2.09375 C 5.171875 -2.3125 5.085938 -2.492188 4.921875 -2.640625 C 4.765625 -2.785156 4.5625 -2.898438 4.3125 -2.984375 C 4.070312 -3.066406 3.742188 -3.160156 3.328125 -3.265625 C 2.734375 -3.398438 2.253906 -3.535156 1.890625 -3.671875 C 1.523438 -3.816406 1.210938 -4.039062 0.953125 -4.34375 C 0.691406 -4.644531 0.5625 -5.050781 0.5625 -5.5625 C 0.5625 -5.988281 0.675781 -6.375 0.90625 -6.71875 C 1.132812 -7.070312 1.484375 -7.351562 1.953125 -7.5625 C 2.421875 -7.769531 3 -7.875 3.6875 -7.875 C 4.15625 -7.875 4.617188 -7.8125 5.078125 -7.6875 C 5.535156 -7.570312 5.929688 -7.40625 6.265625 -7.1875 L 5.8125 -6.0625 C 5.46875 -6.269531 5.109375 -6.421875 4.734375 -6.515625 C 4.367188 -6.617188 4.015625 -6.671875 3.671875 -6.671875 C 3.097656 -6.671875 2.671875 -6.578125 2.390625 -6.390625 C 2.117188 -6.203125 1.984375 -5.945312 1.984375 -5.625 C 1.984375 -5.40625 2.0625 -5.222656 2.21875 -5.078125 C 2.382812 -4.941406 2.585938 -4.832031 2.828125 -4.75 C 3.066406 -4.664062 3.398438 -4.570312 3.828125 -4.46875 C 4.398438 -4.332031 4.867188 -4.191406 5.234375 -4.046875 C 5.609375 -3.910156 5.925781 -3.691406 6.1875 -3.390625 C 6.457031 -3.097656 6.59375 -2.703125 6.59375 -2.203125 C 6.59375 -1.765625 6.472656 -1.375 6.234375 -1.03125 C 6.003906 -0.6875 5.648438 -0.410156 5.171875 -0.203125 C 4.703125 0.00390625 4.128906 0.109375 3.453125 0.109375 Z M 3.453125 0.109375 "/></g></g></g><g fill="#f4f6fc" fill-opacity="1"><g transform="translate(347.770468, 271.358006)"><g><path d="M 2.625 -6.546875 L 0.046875 -6.546875 L 0.046875 -7.765625 L 6.640625 -7.765625 L 6.640625 -6.546875 L 4.0625 -6.546875 L 4.0625 0 L 2.625 0 Z M 2.625 -6.546875 "/></g></g></g><g fill="#f4f6fc" fill-opacity="1"><g transform="translate(355.899228, 271.358006)"><g><path d="M 6.078125 -1.796875 L 2.203125 -1.796875 L 1.4375 0 L -0.0625 0 L 3.4375 -7.765625 L 4.859375 -7.765625 L 8.359375 0 L 6.859375 0 Z M 5.609375 -2.921875 L 4.140625 -6.328125 L 2.6875 -2.921875 Z M 4.953125 -8.390625 C 4.765625 -8.390625 4.601562 -8.425781 4.46875 -8.5 C 4.332031 -8.582031 4.164062 -8.695312 3.96875 -8.84375 C 3.851562 -8.9375 3.753906 -9.003906 3.671875 -9.046875 C 3.597656 -9.097656 3.523438 -9.125 3.453125 -9.125 C 3.296875 -9.125 3.164062 -9.066406 3.0625 -8.953125 C 2.957031 -8.835938 2.90625 -8.675781 2.90625 -8.46875 L 2.15625 -8.46875 C 2.164062 -8.914062 2.28125 -9.273438 2.5 -9.546875 C 2.71875 -9.816406 3.003906 -9.953125 3.359375 -9.953125 C 3.546875 -9.953125 3.707031 -9.914062 3.84375 -9.84375 C 3.976562 -9.769531 4.144531 -9.65625 4.34375 -9.5 C 4.457031 -9.40625 4.550781 -9.332031 4.625 -9.28125 C 4.707031 -9.238281 4.785156 -9.21875 4.859375 -9.21875 C 5.015625 -9.21875 5.144531 -9.269531 5.25 -9.375 C 5.351562 -9.488281 5.40625 -9.644531 5.40625 -9.84375 L 6.15625 -9.84375 C 6.132812 -9.414062 6.015625 -9.066406 5.796875 -8.796875 C 5.585938 -8.523438 5.304688 -8.390625 4.953125 -8.390625 Z M 4.953125 -8.390625 "/></g></g></g><g fill="#f4f6fc" fill-opacity="1"><g transform="translate(365.658149, 271.358006)"><g><path d="M 4.671875 0.109375 C 3.878906 0.109375 3.164062 -0.0625 2.53125 -0.40625 C 1.894531 -0.75 1.394531 -1.222656 1.03125 -1.828125 C 0.664062 -2.441406 0.484375 -3.128906 0.484375 -3.890625 C 0.484375 -4.640625 0.664062 -5.316406 1.03125 -5.921875 C 1.394531 -6.535156 1.894531 -7.015625 2.53125 -7.359375 C 3.164062 -7.703125 3.878906 -7.875 4.671875 -7.875 C 5.460938 -7.875 6.175781 -7.703125 6.8125 -7.359375 C 7.445312 -7.015625 7.945312 -6.539062 8.3125 -5.9375 C 8.675781 -5.332031 8.859375 -4.648438 8.859375 -3.890625 C 8.859375 -3.117188 8.675781 -2.429688 8.3125 -1.828125 C 7.945312 -1.222656 7.445312 -0.75 6.8125 -0.40625 C 6.175781 -0.0625 5.460938 0.109375 4.671875 0.109375 Z M 4.671875 -1.15625 C 5.191406 -1.15625 5.65625 -1.269531 6.0625 -1.5 C 6.476562 -1.738281 6.804688 -2.066406 7.046875 -2.484375 C 7.285156 -2.898438 7.40625 -3.367188 7.40625 -3.890625 C 7.40625 -4.398438 7.285156 -4.863281 7.046875 -5.28125 C 6.804688 -5.695312 6.476562 -6.019531 6.0625 -6.25 C 5.65625 -6.488281 5.191406 -6.609375 4.671875 -6.609375 C 4.148438 -6.609375 3.679688 -6.488281 3.265625 -6.25 C 2.859375 -6.019531 2.535156 -5.695312 2.296875 -5.28125 C 2.054688 -4.863281 1.9375 -4.398438 1.9375 -3.890625 C 1.9375 -3.367188 2.054688 -2.898438 2.296875 -2.484375 C 2.535156 -2.066406 2.859375 -1.738281 3.265625 -1.5 C 3.679688 -1.269531 4.148438 -1.15625 4.671875 -1.15625 Z M 4.671875 -1.15625 "/></g></g></g><path fill="#cfaa5c" d="M 182.019531 114.382812 C 182.777344 113.277344 184.03125 113.039062 184.03125 113.039062 C 181.070312 114.402344 182.476562 117.253906 182.476562 117.253906 C 182.90625 116.910156 183.449219 116.628906 184.464844 116.414062 C 184.570312 115.699219 185.046875 114.898438 185.996094 114.75 C 185.023438 115.203125 184.851562 116.414062 184.851562 116.414062 C 185.003906 115.914062 186.34375 115.828125 187.292969 115.828125 C 188.246094 115.828125 189.605469 115.914062 189.738281 116.414062 C 189.738281 116.414062 189.5625 115.203125 188.589844 114.75 C 189.542969 114.898438 190.019531 115.699219 190.125 116.414062 C 191.140625 116.628906 191.683594 116.910156 192.113281 117.253906 C 192.113281 117.253906 193.539062 114.402344 190.558594 113.039062 C 190.558594 113.039062 191.8125 113.277344 192.566406 114.382812 C 193.28125 113.625 194.210938 112.15625 194.210938 112.15625 L 192.027344 112.804688 L 192.09375 110.492188 L 190.40625 111.742188 L 190.210938 109.238281 L 188.589844 111.117188 L 187.316406 108.414062 L 186.042969 111.117188 L 184.421875 109.238281 L 184.183594 111.742188 L 182.496094 110.492188 L 182.5625 112.804688 L 180.378906 112.15625 C 180.378906 112.15625 181.308594 113.625 182.019531 114.382812 Z M 182.019531 114.382812 " fill-opacity="1" fill-rule="nonzero"/><g clip-path="url(#578b96ed57)"><path fill="#cfaa5c" d="M 186.171875 206.429688 C 186.453125 205.199219 187.015625 203.902344 187.8125 202.519531 C 192.351562 194.652344 197.691406 185.960938 195.484375 174.3125 C 193.390625 185.335938 183.664062 195.082031 180.269531 202.367188 C 179.730469 203.554688 179.339844 204.65625 179.167969 205.695312 C 181.871094 207.554688 184.507812 209.347656 186.367188 210.625 C 185.867188 209.304688 185.824219 207.898438 186.171875 206.429688 Z M 186.171875 206.429688 " fill-opacity="1" fill-rule="nonzero"/></g><g clip-path="url(#6e36b81b1f)"><path fill="#cfaa5c" d="M 170.566406 195.644531 C 163.648438 190.371094 158.203125 183.238281 155.070312 175.113281 C 153.644531 171.460938 152.671875 167.613281 152.21875 163.722656 C 151.742188 160.285156 151.894531 155.25 151.871094 151.726562 L 151.871094 128.472656 C 153.882812 127.671875 155.828125 126.828125 157.769531 125.988281 C 164.710938 122.960938 171.734375 120.214844 179.210938 118.789062 C 171.625 119.375 164.148438 121.339844 156.90625 123.609375 C 154.484375 124.34375 152.066406 125.101562 149.6875 125.707031 L 148.5 126.09375 L 148.5 151.726562 C 148.5625 155.402344 148.304688 160.503906 148.867188 164.132812 C 150.488281 177.921875 158.074219 190.824219 169.335938 198.929688 C 169.636719 199.148438 169.917969 199.363281 170.21875 199.558594 C 170.71875 199.902344 171.300781 200.292969 171.929688 200.722656 C 172.058594 199.515625 172.382812 198.347656 172.8125 197.265625 C 173.722656 194.953125 175.167969 192.964844 176.511719 191.472656 C 179.253906 188.40625 180.226562 185.550781 180.550781 184.191406 L 178.929688 182.613281 C 177.785156 188.554688 173.136719 190.761719 170.566406 195.644531 Z M 170.566406 195.644531 " fill-opacity="1" fill-rule="nonzero"/></g><path fill="#cfaa5c" d="M 180.550781 184.210938 C 179.882812 189.851562 175.816406 192.273438 174.152344 198.195312 C 174.109375 198.367188 174.046875 198.5625 174.003906 198.757812 C 173.722656 199.925781 173.636719 200.984375 173.699219 202 C 174.996094 202.886719 176.421875 203.878906 177.851562 204.851562 C 178.109375 203.773438 178.542969 202.691406 179.058594 201.589844 C 180.917969 197.742188 184.074219 193.828125 186.085938 190.265625 Z M 180.550781 184.210938 " fill-opacity="1" fill-rule="nonzero"/><path fill="#cfaa5c" d="M 159.628906 157.433594 L 159.714844 159.574219 C 159.738281 160.070312 160.105469 160.503906 160.601562 160.566406 L 161.425781 160.699219 L 162.398438 159.8125 L 162.441406 159.097656 C 162.460938 158.601562 162.160156 158.167969 161.683594 158.015625 Z M 159.628906 157.433594 " fill-opacity="1" fill-rule="nonzero"/><g clip-path="url(#8ccf1ebe31)"><path fill="#cfaa5c" d="M 226.566406 151.726562 L 226.566406 126.09375 C 220.449219 124.34375 214.265625 122.464844 208 121.015625 C 207.351562 118.703125 206.746094 116.195312 206.355469 114.769531 C 205.773438 112.652344 204.109375 110.773438 203.484375 109.367188 C 203.070312 108.457031 202.445312 108.414062 201.796875 108.804688 C 199.875 106.363281 203.246094 102.429688 201.558594 100.332031 C 202.359375 102.644531 200.542969 104.375 200.566406 106.988281 C 200.523438 108.027344 200.890625 108.78125 201.300781 109.300781 C 201.191406 109.476562 201.082031 109.667969 200.953125 109.691406 C 200.433594 109.820312 200.433594 110.449219 200.433594 110.449219 C 200.433594 110.449219 200.023438 110.707031 200.109375 111.203125 C 200.328125 112.371094 200.933594 112.113281 202.617188 113.0625 C 204.304688 114.011719 204.78125 117.210938 205.058594 119.589844 C 205.082031 119.847656 205.125 120.109375 205.167969 120.390625 C 202.035156 119.742188 198.902344 119.242188 195.722656 118.941406 C 198.988281 119.609375 202.1875 120.519531 205.320312 121.554688 C 205.621094 123.761719 206.054688 126.3125 206.402344 127.242188 C 206.832031 128.363281 207.742188 128.839844 207.914062 128.925781 C 203.351562 126.59375 199.246094 130.136719 192.742188 129.660156 C 190.277344 129.488281 189.28125 127.046875 189.328125 125.445312 C 189.390625 123.824219 189.84375 123.695312 190.96875 122.378906 C 191.726562 121.492188 191.855469 119.804688 191.855469 119.804688 C 191.855469 119.804688 190.773438 118.636719 188.375 118.8125 C 187.984375 118.550781 187.683594 118.464844 187.339844 118.464844 C 186.992188 118.464844 186.710938 118.550781 186.300781 118.8125 C 183.878906 118.636719 182.820312 119.804688 182.820312 119.804688 C 182.820312 119.804688 182.949219 121.492188 183.707031 122.378906 C 184.832031 123.695312 185.347656 123.824219 185.394531 125.445312 C 185.457031 127.066406 184.226562 127.714844 182.367188 129.207031 C 180.507812 130.699219 181.328125 132.601562 182.648438 133.445312 C 181.242188 131.542969 182.710938 130.027344 182.710938 130.027344 C 182.171875 131.867188 184.203125 133.074219 186.777344 135.109375 C 189.328125 137.140625 188.613281 140.878906 185.695312 142.996094 C 187.1875 138.285156 185.175781 135.992188 183.082031 135.085938 C 185.695312 137.59375 184.421875 140.078125 184.421875 140.078125 C 184.3125 136.082031 176.8125 135.367188 179.730469 129.8125 C 174.585938 129.8125 171.625 139.734375 170.910156 143.902344 C 168.425781 146.128906 166.4375 150.710938 166.007812 153.261719 C 165.59375 155.8125 164.925781 157.519531 164.339844 158.472656 C 163.757812 159.421875 162.117188 160.609375 161.855469 161.128906 C 161.597656 161.648438 161.792969 162.253906 162.117188 162.253906 C 162.503906 161.433594 163.519531 160.890625 163.519531 160.890625 C 163.132812 161.195312 162.351562 161.929688 162.222656 162.578125 C 162.09375 163.226562 162.9375 164.046875 162.9375 164.046875 C 162.9375 164.046875 162.742188 163.679688 163.195312 163.097656 C 163.757812 162.363281 164.40625 162.167969 164.40625 162.167969 C 163.84375 162.511719 163.175781 163.246094 163.132812 164.261719 C 163.066406 165.277344 163.929688 165.691406 163.929688 165.691406 C 163.824219 163.765625 164.902344 162.835938 166.007812 162.921875 C 164.988281 163.226562 164.210938 164.15625 164.167969 165.277344 L 164.125 166.316406 L 160.96875 167.65625 L 162.351562 169.167969 L 163.738281 170.683594 L 165.335938 167.65625 L 167.476562 167.742188 L 185.890625 187.734375 L 188.160156 188.664062 L 187.425781 186.332031 L 169.03125 166.316406 L 169.117188 164.175781 L 172.273438 162.835938 L 169.507812 159.8125 L 167.90625 162.835938 L 166.871094 162.792969 C 166.675781 162.792969 166.503906 162.792969 166.332031 162.835938 C 167.605469 160.480469 166.609375 159.53125 167.023438 157.824219 C 167.453125 156.09375 170.457031 150.324219 171.710938 148.722656 C 172.382812 147.835938 172.769531 146.820312 172.964844 146.085938 C 174.757812 143.902344 178.28125 137.3125 178.28125 137.3125 C 178.261719 141.203125 180.121094 141.613281 180.121094 141.613281 C 179.558594 151.359375 183.273438 154.601562 185.023438 156.117188 C 181.804688 154.730469 180.636719 151.230469 180.636719 151.230469 C 174.003906 161.085938 176.25 168.996094 179.082031 173.988281 C 179.925781 175.457031 181.199219 177.015625 182.386719 178.613281 C 187.835938 174.226562 191.421875 165.691406 191.421875 165.691406 C 190.429688 172.21875 185.695312 177.554688 183.492188 179.804688 C 186.085938 182.65625 188.722656 185.53125 188.722656 185.53125 C 193.757812 179.609375 196.027344 168.84375 196.589844 162.621094 C 197.128906 156.589844 194.730469 152.074219 194.730469 152.074219 C 194.773438 155.597656 188.613281 167.332031 183.554688 169.773438 C 188.441406 166.359375 192.113281 156.417969 193.042969 154.453125 C 193.996094 152.484375 193.585938 150.710938 193.585938 150.710938 C 188.289062 160.675781 181.890625 162.554688 181.890625 162.554688 C 186.410156 160.113281 193.367188 149.914062 193.171875 149.242188 C 192.980469 148.574219 192.914062 145.828125 193.238281 144.464844 C 193.5625 143.105469 193.671875 140.878906 193.671875 140.878906 C 193.671875 140.878906 194.425781 140.511719 195.011719 139.644531 C 196.199219 137.851562 195.054688 135.453125 195.960938 134.632812 C 197.472656 133.03125 201.925781 133.617188 206.421875 132.101562 C 206.445312 137.960938 206.402344 144.226562 206.574219 150.105469 C 204.585938 150.238281 203.613281 151.878906 202.46875 152.742188 C 201.257812 153.652344 199.636719 154.277344 198.296875 152.117188 C 197.667969 153.628906 199.527344 155.703125 202.488281 154.214844 C 205.429688 152.722656 206.226562 153.523438 206.550781 154.710938 C 206.574219 154.796875 206.59375 155.964844 206.59375 157.671875 L 200.023438 173.144531 L 198.792969 173.144531 C 199.722656 176.648438 202.898438 179.21875 206.679688 179.21875 C 210.464844 179.21875 213.664062 176.648438 214.570312 173.144531 L 213.339844 173.144531 L 207.136719 157.585938 C 207.15625 155.898438 207.179688 154.753906 207.199219 154.6875 C 207.523438 153.5 208.324219 152.699219 211.261719 154.191406 C 214.203125 155.683594 216.082031 153.609375 215.457031 152.09375 C 214.117188 154.257812 212.496094 153.628906 211.285156 152.722656 C 210.140625 151.859375 209.144531 150.238281 207.179688 150.085938 C 207.222656 148.941406 207.222656 147.773438 207.242188 146.628906 C 207.265625 143.992188 207.285156 138.695312 207.308594 136.082031 C 207.328125 134.652344 207.308594 133.207031 207.308594 131.777344 C 207.523438 131.691406 207.761719 131.605469 207.976562 131.5 C 211.867188 129.703125 210.378906 127.695312 208.972656 124.105469 C 208.800781 123.675781 208.648438 123.199219 208.476562 122.679688 C 213.425781 124.472656 218.265625 126.527344 223.171875 128.472656 L 223.171875 151.75 C 223.105469 155.25 223.367188 160.308594 222.828125 163.746094 C 221.441406 175.457031 215.457031 186.546875 206.402344 194.132812 C 204.929688 195.40625 203.246094 196.574219 201.644531 197.675781 C 200.910156 198.175781 199.917969 198.867188 198.769531 199.644531 C 196.71875 194.628906 196.566406 187.929688 196.566406 187.929688 C 195.074219 193.355469 192.332031 198.109375 189.78125 202.519531 L 189.28125 203.382812 C 188.914062 204.03125 188.417969 204.960938 188.050781 206.0625 C 188.050781 206.0625 188.050781 206.085938 188.050781 206.085938 C 188.03125 206.128906 188.007812 206.191406 187.984375 206.234375 C 187.964844 206.277344 187.964844 206.320312 187.941406 206.367188 C 187.835938 206.667969 187.769531 206.949219 187.726562 207.230469 C 187.707031 207.316406 187.707031 207.402344 187.683594 207.46875 C 187.660156 207.664062 187.640625 207.835938 187.640625 208.007812 C 187.597656 209.132812 187.941406 210.0625 188.460938 210.796875 C 189.996094 209.738281 193.152344 207.597656 195.527344 205.976562 C 195.378906 205.523438 195.117188 205.046875 194.75 204.550781 C 194.382812 204.074219 194.125 203.511719 193.953125 202.949219 C 193.476562 201.371094 193.714844 199.6875 194.082031 199.015625 C 193.996094 199.925781 193.972656 201.308594 194.46875 202.582031 C 194.707031 203.210938 195.054688 203.792969 195.574219 204.3125 C 195.898438 204.636719 196.132812 205.023438 196.308594 205.4375 C 197.5625 204.570312 198.46875 203.964844 198.554688 203.878906 L 200.433594 202.582031 L 203.589844 200.421875 C 215.976562 192.382812 224.511719 178.789062 226.199219 164.113281 C 226.695312 160.503906 226.542969 155.421875 226.566406 151.726562 Z M 200.523438 173.144531 L 206.636719 158.816406 C 206.636719 163.550781 206.617188 170.941406 206.617188 173.144531 Z M 212.839844 173.144531 L 206.984375 173.144531 C 207.003906 170.984375 207.050781 163.527344 207.113281 158.773438 Z M 212.839844 173.144531 " fill-opacity="1" fill-rule="nonzero"/></g></svg>